<mxfile host="app.diagrams.net" modified="2022-04-24T16:34:34.102Z" agent="5.0 (Windows NT 6.1) AppleWebKit/537.36 (KHTML, like Gecko) Chrome/98.0.4758.141 YaBrowser/22.3.2.648 Yowser/2.5 Safari/537.36" etag="WHm0J10hRw5QGe8Vdig5" version="17.4.6" type="github">
  <diagram id="7_X4Hh6B62P0qPhFVUl6" name="Page-1">
    <mxGraphModel dx="1299" dy="631" grid="1" gridSize="10" guides="1" tooltips="1" connect="1" arrows="1" fold="1" page="1" pageScale="1" pageWidth="1169" pageHeight="827" math="0" shadow="0">
      <root>
        <mxCell id="0" />
        <mxCell id="1" parent="0" />
        <mxCell id="nqmLzKfYKL57ut2RmB0K-4" value="Принять карту&amp;nbsp;" style="ellipse;whiteSpace=wrap;html=1;" parent="1" vertex="1">
          <mxGeometry x="305" y="410" width="120" height="80" as="geometry" />
        </mxCell>
        <mxCell id="nqmLzKfYKL57ut2RmB0K-5" value="Бесконтактное подключение карты" style="ellipse;whiteSpace=wrap;html=1;" parent="1" vertex="1">
          <mxGeometry x="465" y="380" width="120" height="80" as="geometry" />
        </mxCell>
        <mxCell id="nqmLzKfYKL57ut2RmB0K-6" value="Запрос пин-кода" style="ellipse;whiteSpace=wrap;html=1;" parent="1" vertex="1">
          <mxGeometry x="775" y="424" width="120" height="80" as="geometry" />
        </mxCell>
        <mxCell id="nqmLzKfYKL57ut2RmB0K-11" value="Запросить номинал купюр" style="ellipse;whiteSpace=wrap;html=1;" parent="1" vertex="1">
          <mxGeometry x="685" y="830" width="120" height="80" as="geometry" />
        </mxCell>
        <mxCell id="nqmLzKfYKL57ut2RmB0K-12" value="Запросить сумму" style="ellipse;whiteSpace=wrap;html=1;" parent="1" vertex="1">
          <mxGeometry x="935" y="504" width="120" height="80" as="geometry" />
        </mxCell>
        <mxCell id="nqmLzKfYKL57ut2RmB0K-13" value="Загрузка денег (картриджей с купюрами)" style="ellipse;whiteSpace=wrap;html=1;" parent="1" vertex="1">
          <mxGeometry x="1175" y="350" width="120" height="80" as="geometry" />
        </mxCell>
        <mxCell id="nqmLzKfYKL57ut2RmB0K-16" value="выемка забытых карт" style="ellipse;whiteSpace=wrap;html=1;" parent="1" vertex="1">
          <mxGeometry x="1065" y="150" width="120" height="80" as="geometry" />
        </mxCell>
        <mxCell id="nqmLzKfYKL57ut2RmB0K-20" value="проверить баланс" style="ellipse;whiteSpace=wrap;html=1;" parent="1" vertex="1">
          <mxGeometry x="1075" y="570" width="120" height="80" as="geometry" />
        </mxCell>
        <mxCell id="nqmLzKfYKL57ut2RmB0K-22" value="Вернуть карту" style="ellipse;whiteSpace=wrap;html=1;" parent="1" vertex="1">
          <mxGeometry x="195" y="620" width="120" height="80" as="geometry" />
        </mxCell>
        <mxCell id="nqmLzKfYKL57ut2RmB0K-29" value="Банкомат" style="shape=umlActor;verticalLabelPosition=bottom;verticalAlign=top;html=1;shadow=1;fillOpacity=100;whiteSpace=wrap;" parent="1" vertex="1">
          <mxGeometry x="585" y="610" width="30" height="60" as="geometry" />
        </mxCell>
        <mxCell id="nqmLzKfYKL57ut2RmB0K-34" value="" style="endArrow=none;html=1;rounded=0;entryX=1;entryY=0.3333333333333333;entryDx=0;entryDy=0;entryPerimeter=0;exitX=0;exitY=0.5;exitDx=0;exitDy=0;" parent="1" source="nqmLzKfYKL57ut2RmB0K-16" target="flpm-r9pyvqwoOaEQ0of-6" edge="1">
          <mxGeometry width="50" height="50" relative="1" as="geometry">
            <mxPoint x="1045" y="270" as="sourcePoint" />
            <mxPoint x="1265" y="850" as="targetPoint" />
          </mxGeometry>
        </mxCell>
        <mxCell id="nqmLzKfYKL57ut2RmB0K-35" value="" style="endArrow=none;html=1;rounded=0;exitX=0;exitY=0.5;exitDx=0;exitDy=0;" parent="1" source="nqmLzKfYKL57ut2RmB0K-13" target="flpm-r9pyvqwoOaEQ0of-6" edge="1">
          <mxGeometry width="50" height="50" relative="1" as="geometry">
            <mxPoint x="1175" y="930" as="sourcePoint" />
            <mxPoint x="1275" y="860" as="targetPoint" />
          </mxGeometry>
        </mxCell>
        <mxCell id="nqmLzKfYKL57ut2RmB0K-37" value="" style="endArrow=none;html=1;rounded=0;exitX=1;exitY=1;exitDx=0;exitDy=0;entryX=0;entryY=0.3333333333333333;entryDx=0;entryDy=0;entryPerimeter=0;" parent="1" source="nqmLzKfYKL57ut2RmB0K-4" edge="1" target="nqmLzKfYKL57ut2RmB0K-29">
          <mxGeometry width="50" height="50" relative="1" as="geometry">
            <mxPoint x="415" y="670" as="sourcePoint" />
            <mxPoint x="445" y="620" as="targetPoint" />
          </mxGeometry>
        </mxCell>
        <mxCell id="nqmLzKfYKL57ut2RmB0K-38" value="" style="endArrow=none;html=1;rounded=0;entryX=0.642;entryY=1;entryDx=0;entryDy=0;entryPerimeter=0;exitX=0;exitY=0.3333333333333333;exitDx=0;exitDy=0;exitPerimeter=0;" parent="1" target="nqmLzKfYKL57ut2RmB0K-5" edge="1" source="nqmLzKfYKL57ut2RmB0K-29">
          <mxGeometry width="50" height="50" relative="1" as="geometry">
            <mxPoint x="475" y="600" as="sourcePoint" />
            <mxPoint x="515" y="560" as="targetPoint" />
          </mxGeometry>
        </mxCell>
        <mxCell id="nqmLzKfYKL57ut2RmB0K-39" value="" style="endArrow=none;html=1;rounded=0;entryX=0.342;entryY=1;entryDx=0;entryDy=0;entryPerimeter=0;exitX=1;exitY=0.3333333333333333;exitDx=0;exitDy=0;exitPerimeter=0;" parent="1" target="nqmLzKfYKL57ut2RmB0K-6" edge="1" source="nqmLzKfYKL57ut2RmB0K-29">
          <mxGeometry width="50" height="50" relative="1" as="geometry">
            <mxPoint x="505" y="600" as="sourcePoint" />
            <mxPoint x="555" y="540" as="targetPoint" />
          </mxGeometry>
        </mxCell>
        <mxCell id="nqmLzKfYKL57ut2RmB0K-40" value="" style="endArrow=none;html=1;rounded=0;entryX=0.422;entryY=0.996;entryDx=0;entryDy=0;entryPerimeter=0;exitX=1;exitY=0.3333333333333333;exitDx=0;exitDy=0;exitPerimeter=0;" parent="1" target="nqmLzKfYKL57ut2RmB0K-20" edge="1" source="nqmLzKfYKL57ut2RmB0K-29">
          <mxGeometry width="50" height="50" relative="1" as="geometry">
            <mxPoint x="505" y="610" as="sourcePoint" />
            <mxPoint x="725" y="520" as="targetPoint" />
          </mxGeometry>
        </mxCell>
        <mxCell id="nqmLzKfYKL57ut2RmB0K-47" value="" style="endArrow=none;html=1;rounded=0;exitX=1;exitY=0.5;exitDx=0;exitDy=0;entryX=0;entryY=0.3333333333333333;entryDx=0;entryDy=0;entryPerimeter=0;" parent="1" source="nqmLzKfYKL57ut2RmB0K-22" edge="1" target="nqmLzKfYKL57ut2RmB0K-29">
          <mxGeometry width="50" height="50" relative="1" as="geometry">
            <mxPoint x="605" y="800" as="sourcePoint" />
            <mxPoint x="445" y="650" as="targetPoint" />
          </mxGeometry>
        </mxCell>
        <mxCell id="nqmLzKfYKL57ut2RmB0K-50" value="" style="endArrow=none;html=1;rounded=0;exitX=0;exitY=0.5;exitDx=0;exitDy=0;" parent="1" source="nqmLzKfYKL57ut2RmB0K-12" edge="1" target="nqmLzKfYKL57ut2RmB0K-29">
          <mxGeometry width="50" height="50" relative="1" as="geometry">
            <mxPoint x="545" y="850" as="sourcePoint" />
            <mxPoint x="505" y="700" as="targetPoint" />
          </mxGeometry>
        </mxCell>
        <mxCell id="nqmLzKfYKL57ut2RmB0K-51" value="" style="endArrow=none;html=1;rounded=0;exitX=0.5;exitY=0;exitDx=0;exitDy=0;" parent="1" source="nqmLzKfYKL57ut2RmB0K-11" edge="1" target="nqmLzKfYKL57ut2RmB0K-29">
          <mxGeometry width="50" height="50" relative="1" as="geometry">
            <mxPoint x="605" y="800" as="sourcePoint" />
            <mxPoint x="485" y="700" as="targetPoint" />
          </mxGeometry>
        </mxCell>
        <mxCell id="nqmLzKfYKL57ut2RmB0K-55" value="отсчитать сумму" style="ellipse;whiteSpace=wrap;html=1;shadow=1;" parent="1" vertex="1">
          <mxGeometry x="335" y="820" width="120" height="80" as="geometry" />
        </mxCell>
        <mxCell id="nqmLzKfYKL57ut2RmB0K-56" value="" style="endArrow=none;html=1;rounded=0;" parent="1" edge="1" target="nqmLzKfYKL57ut2RmB0K-29" source="nqmLzKfYKL57ut2RmB0K-55">
          <mxGeometry width="50" height="50" relative="1" as="geometry">
            <mxPoint x="265" y="800" as="sourcePoint" />
            <mxPoint x="445" y="670" as="targetPoint" />
          </mxGeometry>
        </mxCell>
        <mxCell id="flpm-r9pyvqwoOaEQ0of-5" value="Банковская карта" style="shape=umlActor;verticalLabelPosition=bottom;verticalAlign=top;html=1;outlineConnect=0;" vertex="1" parent="1">
          <mxGeometry x="180" y="210" width="30" height="60" as="geometry" />
        </mxCell>
        <mxCell id="flpm-r9pyvqwoOaEQ0of-6" value="Банк" style="shape=umlActor;verticalLabelPosition=bottom;verticalAlign=top;html=1;outlineConnect=0;" vertex="1" parent="1">
          <mxGeometry x="1035" y="260" width="30" height="60" as="geometry" />
        </mxCell>
        <mxCell id="flpm-r9pyvqwoOaEQ0of-8" value="номер карты" style="ellipse;whiteSpace=wrap;html=1;" vertex="1" parent="1">
          <mxGeometry x="270" y="200" width="120" height="80" as="geometry" />
        </mxCell>
        <mxCell id="flpm-r9pyvqwoOaEQ0of-11" value="" style="endArrow=none;html=1;rounded=0;entryX=0;entryY=0.5;entryDx=0;entryDy=0;exitX=0.5;exitY=0.5;exitDx=0;exitDy=0;exitPerimeter=0;" edge="1" parent="1" source="flpm-r9pyvqwoOaEQ0of-5" target="flpm-r9pyvqwoOaEQ0of-8">
          <mxGeometry width="50" height="50" relative="1" as="geometry">
            <mxPoint x="205" y="240" as="sourcePoint" />
            <mxPoint x="255" y="190" as="targetPoint" />
          </mxGeometry>
        </mxCell>
        <mxCell id="flpm-r9pyvqwoOaEQ0of-18" value="Блокировка забытой карты" style="ellipse;whiteSpace=wrap;html=1;" vertex="1" parent="1">
          <mxGeometry x="205" y="500" width="120" height="80" as="geometry" />
        </mxCell>
        <mxCell id="flpm-r9pyvqwoOaEQ0of-19" value="" style="endArrow=none;html=1;rounded=0;entryX=1;entryY=0.5;entryDx=0;entryDy=0;exitX=0;exitY=0.3333333333333333;exitDx=0;exitDy=0;exitPerimeter=0;" edge="1" parent="1" source="nqmLzKfYKL57ut2RmB0K-29" target="flpm-r9pyvqwoOaEQ0of-18">
          <mxGeometry width="50" height="50" relative="1" as="geometry">
            <mxPoint x="465" y="630" as="sourcePoint" />
            <mxPoint x="795" y="530" as="targetPoint" />
          </mxGeometry>
        </mxCell>
        <mxCell id="flpm-r9pyvqwoOaEQ0of-21" value="" style="endArrow=none;html=1;rounded=0;exitX=1;exitY=0;exitDx=0;exitDy=0;entryX=0;entryY=0.3333333333333333;entryDx=0;entryDy=0;entryPerimeter=0;" edge="1" parent="1" source="nqmLzKfYKL57ut2RmB0K-6" target="flpm-r9pyvqwoOaEQ0of-6">
          <mxGeometry width="50" height="50" relative="1" as="geometry">
            <mxPoint x="850" y="320" as="sourcePoint" />
            <mxPoint x="900" y="270" as="targetPoint" />
          </mxGeometry>
        </mxCell>
        <mxCell id="flpm-r9pyvqwoOaEQ0of-22" value="" style="endArrow=none;html=1;rounded=0;exitX=0.603;exitY=0.021;exitDx=0;exitDy=0;exitPerimeter=0;" edge="1" parent="1" source="nqmLzKfYKL57ut2RmB0K-20" target="flpm-r9pyvqwoOaEQ0of-6">
          <mxGeometry width="50" height="50" relative="1" as="geometry">
            <mxPoint x="745" y="530" as="sourcePoint" />
            <mxPoint x="895" y="290" as="targetPoint" />
          </mxGeometry>
        </mxCell>
        <mxCell id="flpm-r9pyvqwoOaEQ0of-23" value="Выдать сумму в купюроприемнике" style="ellipse;whiteSpace=wrap;html=1;" vertex="1" parent="1">
          <mxGeometry x="205" y="740" width="120" height="80" as="geometry" />
        </mxCell>
        <mxCell id="flpm-r9pyvqwoOaEQ0of-25" value="" style="endArrow=none;html=1;rounded=0;exitX=1;exitY=0;exitDx=0;exitDy=0;entryX=0;entryY=0.3333333333333333;entryDx=0;entryDy=0;entryPerimeter=0;" edge="1" parent="1" source="flpm-r9pyvqwoOaEQ0of-23" target="nqmLzKfYKL57ut2RmB0K-29">
          <mxGeometry width="50" height="50" relative="1" as="geometry">
            <mxPoint x="325" y="750" as="sourcePoint" />
            <mxPoint x="445" y="660" as="targetPoint" />
          </mxGeometry>
        </mxCell>
        <mxCell id="flpm-r9pyvqwoOaEQ0of-26" value="" style="endArrow=none;html=1;rounded=0;entryX=0.5;entryY=1;entryDx=0;entryDy=0;exitX=0.5;exitY=0;exitDx=0;exitDy=0;" edge="1" parent="1" source="nqmLzKfYKL57ut2RmB0K-4" target="flpm-r9pyvqwoOaEQ0of-8">
          <mxGeometry width="50" height="50" relative="1" as="geometry">
            <mxPoint x="270" y="430" as="sourcePoint" />
            <mxPoint x="320" y="380" as="targetPoint" />
          </mxGeometry>
        </mxCell>
        <mxCell id="flpm-r9pyvqwoOaEQ0of-27" value="" style="endArrow=none;html=1;rounded=0;exitX=0.5;exitY=0;exitDx=0;exitDy=0;entryX=0.5;entryY=1;entryDx=0;entryDy=0;" edge="1" parent="1" source="nqmLzKfYKL57ut2RmB0K-5" target="flpm-r9pyvqwoOaEQ0of-8">
          <mxGeometry width="50" height="50" relative="1" as="geometry">
            <mxPoint x="385" y="350" as="sourcePoint" />
            <mxPoint x="345" y="280" as="targetPoint" />
          </mxGeometry>
        </mxCell>
        <mxCell id="flpm-r9pyvqwoOaEQ0of-28" value="Считать данные карты" style="ellipse;whiteSpace=wrap;html=1;" vertex="1" parent="1">
          <mxGeometry x="635" y="380" width="120" height="80" as="geometry" />
        </mxCell>
        <mxCell id="flpm-r9pyvqwoOaEQ0of-29" value="" style="endArrow=none;html=1;rounded=0;entryX=0.4;entryY=0.979;entryDx=0;entryDy=0;entryPerimeter=0;exitX=1;exitY=0.3333333333333333;exitDx=0;exitDy=0;exitPerimeter=0;" edge="1" parent="1" source="nqmLzKfYKL57ut2RmB0K-29" target="flpm-r9pyvqwoOaEQ0of-28">
          <mxGeometry width="50" height="50" relative="1" as="geometry">
            <mxPoint x="495" y="590" as="sourcePoint" />
            <mxPoint x="555" y="450" as="targetPoint" />
          </mxGeometry>
        </mxCell>
        <mxCell id="flpm-r9pyvqwoOaEQ0of-30" value="Проверить наличие необходимой суммы и возможный номинал" style="ellipse;whiteSpace=wrap;html=1;" vertex="1" parent="1">
          <mxGeometry x="816" y="730" width="139" height="90" as="geometry" />
        </mxCell>
        <mxCell id="flpm-r9pyvqwoOaEQ0of-31" value="" style="endArrow=none;html=1;rounded=0;" edge="1" parent="1" source="flpm-r9pyvqwoOaEQ0of-30" target="nqmLzKfYKL57ut2RmB0K-29">
          <mxGeometry width="50" height="50" relative="1" as="geometry">
            <mxPoint x="425" y="840" as="sourcePoint" />
            <mxPoint x="475" y="790" as="targetPoint" />
          </mxGeometry>
        </mxCell>
        <mxCell id="flpm-r9pyvqwoOaEQ0of-32" value="Отказ в операции" style="ellipse;whiteSpace=wrap;html=1;" vertex="1" parent="1">
          <mxGeometry x="490" y="840" width="120" height="80" as="geometry" />
        </mxCell>
        <mxCell id="flpm-r9pyvqwoOaEQ0of-33" value="" style="endArrow=none;html=1;rounded=0;exitX=0.5;exitY=0;exitDx=0;exitDy=0;" edge="1" parent="1" source="flpm-r9pyvqwoOaEQ0of-32" target="nqmLzKfYKL57ut2RmB0K-29">
          <mxGeometry width="50" height="50" relative="1" as="geometry">
            <mxPoint x="495" y="740" as="sourcePoint" />
            <mxPoint x="545" y="690" as="targetPoint" />
          </mxGeometry>
        </mxCell>
        <mxCell id="flpm-r9pyvqwoOaEQ0of-35" value="" style="endArrow=none;html=1;rounded=0;entryX=0;entryY=1;entryDx=0;entryDy=0;entryPerimeter=0;" edge="1" parent="1" target="flpm-r9pyvqwoOaEQ0of-6">
          <mxGeometry width="50" height="50" relative="1" as="geometry">
            <mxPoint x="995" y="504" as="sourcePoint" />
            <mxPoint x="1045" y="454" as="targetPoint" />
          </mxGeometry>
        </mxCell>
        <mxCell id="flpm-r9pyvqwoOaEQ0of-38" value="" style="endArrow=none;html=1;rounded=0;entryX=0.011;entryY=0.354;entryDx=0;entryDy=0;entryPerimeter=0;" edge="1" parent="1" target="nqmLzKfYKL57ut2RmB0K-16">
          <mxGeometry width="50" height="50" relative="1" as="geometry">
            <mxPoint x="80" y="180" as="sourcePoint" />
            <mxPoint x="680" y="320" as="targetPoint" />
          </mxGeometry>
        </mxCell>
        <mxCell id="flpm-r9pyvqwoOaEQ0of-39" value="" style="endArrow=none;html=1;rounded=0;" edge="1" parent="1">
          <mxGeometry width="50" height="50" relative="1" as="geometry">
            <mxPoint x="80" y="540" as="sourcePoint" />
            <mxPoint x="80" y="180" as="targetPoint" />
          </mxGeometry>
        </mxCell>
        <mxCell id="flpm-r9pyvqwoOaEQ0of-40" value="" style="endArrow=none;html=1;rounded=0;entryX=0;entryY=0.5;entryDx=0;entryDy=0;" edge="1" parent="1" target="flpm-r9pyvqwoOaEQ0of-18">
          <mxGeometry width="50" height="50" relative="1" as="geometry">
            <mxPoint x="80" y="540" as="sourcePoint" />
            <mxPoint x="180" y="510" as="targetPoint" />
          </mxGeometry>
        </mxCell>
      </root>
    </mxGraphModel>
  </diagram>
</mxfile>
